{
  "extensionsUsed": [
    "KHR_materials_transmission",
    "KHR_materials_clearcoat",
    "KHR_materials_ior",
    "KHR_materials_specular",
    "KHR_materials_emissive_strength",
    "KHR_texture_transform"
  ],
  "accessors": [
    {
      "bufferView": 0,
      "componentType": 5126,
      "count": 4,
      "type": "VEC3",
      "max": [
        -0.05499002,
        -0.075,
        0.68
      ],
      "min": [
        -0.098,
        -0.075,
        -2.4115668E-19
      ]
    },
    {
      "bufferView": 1,
      "componentType": 5125,
      "count": 6,
      "type": "SCALAR",
      "max": [
        3.0
      ],
      "min": [
        0.0
      ]
    },
    {
      "bufferView": 2,
      "componentType": 5126,
      "count": 4,
      "type": "VEC3",
      "max": [
        -2.1241512E-16,
        -1.0,
        2.4994406E-18
      ],
      "min": [
        -2.4980018E-16,
        -1.0,
        -0.0
      ]
    },
    {
      "bufferView": 3,
      "componentType": 5126,
      "count": 4,
      "type": "VEC2",
      "max": [
        0.5319279,
        0.42053762
      ],
      "min": [
        0.0,
        0.38835806
      ]
    },
    {
      "bufferView": 4,
      "componentType": 5126,
      "count": 101,
      "type": "VEC3",
      "max": [
        0.089998595,
        0.082,
        0.68
      ],
      "min": [
        -0.089998595,
        -0.075,
        0.68
      ]
    },
    {
      "bufferView": 5,
      "componentType": 5125,
      "count": 297,
      "type": "SCALAR",
      "max": [
        100.0
      ],
      "min": [
        0.0
      ]
    },
    {
      "bufferView": 6,
      "componentType": 5126,
      "count": 101,
      "type": "VEC3",
      "max": [
        0.0,
        0.0,
        1.0
      ],
      "min": [
        0.0,
        0.0,
        1.0
      ]
    },
    {
      "bufferView": 7,
      "componentType": 5126,
      "count": 101,
      "type": "VEC2",
      "max": [
        0.2848394,
        0.35324878
      ],
      "min": [
        0.14403716,
        0.23190087
      ]
    },
    {
      "bufferView": 8,
      "componentType": 5126,
      "count": 102,
      "type": "VEC3",
      "max": [
        0.098,
        0.09,
        6.5497255E-13
      ],
      "min": [
        -0.098,
        -0.075,
        -1.119521E-11
      ]
    },
    {
      "bufferView": 9,
      "componentType": 5125,
      "count": 300,
      "type": "SCALAR",
      "max": [
        101.0
      ],
      "min": [
        0.0
      ]
    },
    {
      "bufferView": 10,
      "componentType": 5126,
      "count": 102,
      "type": "VEC3",
      "max": [
        0.0,
        0.0,
        -1.0
      ],
      "min": [
        0.0,
        0.0,
        -1.0
      ]
    },
    {
      "bufferView": 11,
      "componentType": 5126,
      "count": 102,
      "type": "VEC2",
      "max": [
        0.12907073,
        0.38522127
      ],
      "min": [
        0.0,
        0.23190087
      ]
    },
    {
      "bufferView": 12,
      "componentType": 5126,
      "count": 4,
      "type": "VEC3",
      "max": [
        0.098,
        -0.075,
        0.68
      ],
      "min": [
        0.05499002,
        -0.075,
        4.1086504E-35
      ]
    },
    {
      "bufferView": 13,
      "componentType": 5125,
      "count": 6,
      "type": "SCALAR",
      "max": [
        3.0
      ],
      "min": [
        0.0
      ]
    },
    {
      "bufferView": 14,
      "componentType": 5126,
      "count": 4,
      "type": "VEC3",
      "max": [
        -2.1241512E-16,
        -1.0,
        2.4994406E-18
      ],
      "min": [
        -2.9143354E-16,
        -1.0,
        -0.0
      ]
    },
    {
      "bufferView": 15,
      "componentType": 5126,
      "count": 4,
      "type": "VEC2",
      "max": [
        0.675965,
        0.3868932
      ],
      "min": [
        0.14403716,
        0.35471362
      ]
    },
    {
      "bufferView": 16,
      "componentType": 5126,
      "count": 6,
      "type": "VEC3",
      "max": [
        -0.08747154,
        0.06716368,
        0.68
      ],
      "min": [
        -0.098,
        -0.075,
        -1.9208315E-17
      ]
    },
    {
      "bufferView": 17,
      "componentType": 5125,
      "count": 12,
      "type": "SCALAR",
      "max": [
        5.0
      ],
      "min": [
        0.0
      ]
    },
    {
      "bufferView": 18,
      "componentType": 5126,
      "count": 6,
      "type": "VEC3",
      "max": [
        -0.9997551,
        0.018745407,
        0.011763892
      ],
      "min": [
        -0.9997551,
        0.018745407,
        0.011763892
      ]
    },
    {
      "bufferView": 19,
      "componentType": 5126,
      "count": 6,
      "type": "VEC2",
      "max": [
        0.53198797,
        0.10976179
      ],
      "min": [
        0.0,
        0.0
      ]
    },
    {
      "bufferView": 20,
      "componentType": 5126,
      "count": 36,
      "type": "VEC3",
      "max": [
        0.077041805,
        0.09,
        0.68
      ],
      "min": [
        -0.077041805,
        0.07934105,
        -1.12205375E-11
      ]
    },
    {
      "bufferView": 21,
      "componentType": 5125,
      "count": 117,
      "type": "SCALAR",
      "max": [
        35.0
      ],
      "min": [
        0.0
      ]
    },
    {
      "bufferView": 22,
      "componentType": 5126,
      "count": 36,
      "type": "VEC3",
      "max": [
        0.08512311,
        0.9999308,
        0.011790624
      ],
      "min": [
        -0.08512311,
        0.9963007,
        0.01173818
      ]
    },
    {
      "bufferView": 23,
      "componentType": 5126,
      "count": 36,
      "type": "VEC2",
      "max": [
        0.5319836,
        0.23043603
      ],
      "min": [
        0.0,
        0.11122663
      ]
    },
    {
      "bufferView": 24,
      "componentType": 5126,
      "count": 6,
      "type": "VEC3",
      "max": [
        0.098,
        0.06716368,
        0.68
      ],
      "min": [
        0.08747154,
        -0.075,
        -7.508155E-18
      ]
    },
    {
      "bufferView": 25,
      "componentType": 5125,
      "count": 12,
      "type": "SCALAR",
      "max": [
        5.0
      ],
      "min": [
        0.0
      ]
    },
    {
      "bufferView": 26,
      "componentType": 5126,
      "count": 6,
      "type": "VEC3",
      "max": [
        0.9997551,
        0.018745407,
        0.011763892
      ],
      "min": [
        0.9997551,
        0.018745407,
        0.011763892
      ]
    },
    {
      "bufferView": 27,
      "componentType": 5126,
      "count": 6,
      "type": "VEC2",
      "max": [
        0.73618,
        0.93020517
      ],
      "min": [
        0.3655028,
        0.42200246
      ]
    },
    {
      "bufferView": 28,
      "componentType": 5126,
      "count": 62,
      "type": "VEC3",
      "max": [
        -0.06901512,
        0.08671479,
        0.68
      ],
      "min": [
        -0.09533443,
        0.059776623,
        -1.9208315E-17
      ]
    },
    {
      "bufferView": 29,
      "componentType": 5125,
      "count": 207,
      "type": "SCALAR",
      "max": [
        61.0
      ],
      "min": [
        0.0
      ]
    },
    {
      "bufferView": 30,
      "componentType": 5126,
      "count": 62,
      "type": "VEC3",
      "max": [
        -0.07693496,
        0.996967,
        0.015875835
      ],
      "min": [
        -0.9997551,
        0.018745407,
        0.011738182
      ]
    },
    {
      "bufferView": 31,
      "componentType": 5126,
      "count": 62,
      "type": "VEC2",
      "max": [
        0.7820693,
        0.53525335
      ],
      "min": [
        0.7605895,
        0.0031935829
      ]
    },
    {
      "bufferView": 32,
      "componentType": 5126,
      "count": 62,
      "type": "VEC3",
      "max": [
        0.09533443,
        0.08671479,
        0.68
      ],
      "min": [
        0.06901512,
        0.059776623,
        -1.12205375E-11
      ]
    },
    {
      "bufferView": 33,
      "componentType": 5125,
      "count": 207,
      "type": "SCALAR",
      "max": [
        61.0
      ],
      "min": [
        0.0
      ]
    },
    {
      "bufferView": 34,
      "componentType": 5126,
      "count": 62,
      "type": "VEC3",
      "max": [
        0.9997551,
        0.996967,
        0.015875846
      ],
      "min": [
        0.07693496,
        0.018745406,
        0.011738182
      ]
    },
    {
      "bufferView": 35,
      "componentType": 5126,
      "count": 62,
      "type": "VEC2",
      "max": [
        0.75912464,
        0.5352533
      ],
      "min": [
        0.73764485,
        0.0031935493
      ]
    },
    {
      "bufferView": 36,
      "componentType": 5126,
      "count": 5,
      "type": "VEC3",
      "max": [
        -0.05265079,
        0.05743491,
        0.68
      ],
      "min": [
        -0.062991425,
        -0.075,
        -2.827789E-18
      ]
    },
    {
      "bufferView": 37,
      "componentType": 5125,
      "count": 9,
      "type": "SCALAR",
      "max": [
        4.0
      ],
      "min": [
        0.0
      ]
    },
    {
      "bufferView": 38,
      "componentType": 5126,
      "count": 5,
      "type": "VEC3",
      "max": [
        0.9997551,
        -0.018745407,
        -0.011763892
      ],
      "min": [
        0.9997551,
        -0.018745407,
        -0.011763892
      ]
    },
    {
      "bufferView": 39,
      "componentType": 5126,
      "count": 5,
      "type": "VEC2",
      "max": [
        0.99853516,
        0.53198624
      ],
      "min": [
        0.896385,
        0.0
      ]
    },
    {
      "bufferView": 40,
      "componentType": 5126,
      "count": 29,
      "type": "VEC3",
      "max": [
        0.041441247,
        0.077998966,
        0.68
      ],
      "min": [
        -0.041441247,
        0.06936828,
        -4.502678E-13
      ]
    },
    {
      "bufferView": 41,
      "componentType": 5125,
      "count": 108,
      "type": "SCALAR",
      "max": [
        28.0
      ],
      "min": [
        0.0
      ]
    },
    {
      "bufferView": 42,
      "componentType": 5126,
      "count": 29,
      "type": "VEC3",
      "max": [
        0.046403214,
        -0.99885345,
        -0.011757705
      ],
      "min": [
        -0.046403214,
        -0.9999308,
        -0.011771798
      ]
    },
    {
      "bufferView": 43,
      "componentType": 5126,
      "count": 29,
      "type": "VEC2",
      "max": [
        0.8945397,
        0.5320809
      ],
      "min": [
        0.8311286,
        0.00011051028
      ]
    },
    {
      "bufferView": 44,
      "componentType": 5126,
      "count": 5,
      "type": "VEC3",
      "max": [
        0.062991425,
        0.05743491,
        0.68
      ],
      "min": [
        0.05265079,
        -0.075,
        1.6464408E-19
      ]
    },
    {
      "bufferView": 45,
      "componentType": 5125,
      "count": 9,
      "type": "SCALAR",
      "max": [
        4.0
      ],
      "min": [
        0.0
      ]
    },
    {
      "bufferView": 46,
      "componentType": 5126,
      "count": 5,
      "type": "VEC3",
      "max": [
        -0.9997551,
        -0.018745407,
        -0.011763892
      ],
      "min": [
        -0.9997551,
        -0.018745407,
        -0.011763892
      ]
    },
    {
      "bufferView": 47,
      "componentType": 5126,
      "count": 5,
      "type": "VEC2",
      "max": [
        0.36403796,
        0.9276247
      ],
      "min": [
        0.0,
        0.42200246
      ]
    },
    {
      "bufferView": 48,
      "componentType": 5126,
      "count": 64,
      "type": "VEC3",
      "max": [
        0.06050827,
        0.07703707,
        0.68
      ],
      "min": [
        0.03341068,
        0.04975883,
        -4.502678E-13
      ]
    },
    {
      "bufferView": 49,
      "componentType": 5125,
      "count": 216,
      "type": "SCALAR",
      "max": [
        63.0
      ],
      "min": [
        0.0
      ]
    },
    {
      "bufferView": 50,
      "componentType": 5126,
      "count": 64,
      "type": "VEC3",
      "max": [
        -0.037749518,
        -0.018745407,
        -0.011757723
      ],
      "min": [
        -0.9997551,
        -0.99921805,
        -0.016180603
      ]
    },
    {
      "bufferView": 51,
      "componentType": 5126,
      "count": 64,
      "type": "VEC2",
      "max": [
        0.8292833,
        0.53526074
      ],
      "min": [
        0.8071411,
        0.0031938467
      ]
    },
    {
      "bufferView": 52,
      "componentType": 5126,
      "count": 64,
      "type": "VEC3",
      "max": [
        -0.03341068,
        0.07703707,
        0.68
      ],
      "min": [
        -0.06050827,
        0.04975883,
        -4.4490795E-13
      ]
    },
    {
      "bufferView": 53,
      "componentType": 5125,
      "count": 216,
      "type": "SCALAR",
      "max": [
        63.0
      ],
      "min": [
        0.0
      ]
    },
    {
      "bufferView": 54,
      "componentType": 5126,
      "count": 64,
      "type": "VEC3",
      "max": [
        0.9997551,
        -0.018745406,
        -0.011757723
      ],
      "min": [
        0.037749518,
        -0.99921805,
        -0.016180605
      ]
    },
    {
      "bufferView": 55,
      "componentType": 5126,
      "count": 64,
      "type": "VEC2",
      "max": [
        0.8056763,
        0.53526074
      ],
      "min": [
        0.78353417,
        0.0031938402
      ]
    }
  ],
  "asset": {
    "version": "2.0"
  },
  "buffers": [
    {
      "uri": "data:application/octet-stream;base64,",
      "byteLength": 48
    },
    {
      "uri": "data:application/octet-stream;base64,",
      "byteLength": 24
    },
    {
      "uri": "data:application/octet-stream;base64,",
      "byteLength": 48
    },
    {
      "uri": "data:application/octet-stream;base64,",
      "byteLength": 32
    },
    {
      "uri": "data:application/octet-stream;base64,",
      "byteLength": 1212
    },
    {
      "uri": "data:application/octet-stream;base64,",
      "byteLength": 1188
    },
    {
      "uri": "data:application/octet-stream;base64,",
      "byteLength": 1212
    },
    {
      "uri": "data:application/octet-stream;base64,",
      "byteLength": 808
    },
    {
      "uri": "data:application/octet-stream;base64,",
      "byteLength": 1224
    },
    {
      "uri": "data:application/octet-stream;base64,",
      "byteLength": 1200
    },
    {
      "uri": "data:application/octet-stream;base64,",
      "byteLength": 1224
    },
    {
      "uri": "data:application/octet-stream;base64,",
      "byteLength": 816
    },
    {
      "uri": "data:application/octet-stream;base64,",
      "byteLength": 48
    },
    {
      "uri": "data:application/octet-stream;base64,",
      "byteLength": 24
    },
    {
      "uri": "data:application/octet-stream;base64,",
      "byteLength": 48
    },
    {
      "uri": "data:application/octet-stream;base64,",
      "byteLength": 32
    },
    {
      "uri": "data:application/octet-stream;base64,",
      "byteLength": 72
    },
    {
      "uri": "data:application/octet-stream;base64,",
      "byteLength": 48
    },
    {
      "uri": "data:application/octet-stream;base64,",
      "byteLength": 72
    },
    {
      "uri": "data:application/octet-stream;base64,",
      "byteLength": 48
    },
    {
      "uri": "data:application/octet-stream;base64,",
      "byteLength": 432
    },
    {
      "uri": "data:application/octet-stream;base64,",
      "byteLength": 468
    },
    {
      "uri": "data:application/octet-stream;base64,",
      "byteLength": 432
    },
    {
      "uri": "data:application/octet-stream;base64,",
      "byteLength": 288
    },
    {
      "uri": "data:application/octet-stream;base64,",
      "byteLength": 72
    },
    {
      "uri": "data:application/octet-stream;base64,",
      "byteLength": 48
    },
    {
      "uri": "data:application/octet-stream;base64,",
      "byteLength": 72
    },
    {
      "uri": "data:application/octet-stream;base64,",
      "byteLength": 48
    },
    {
      "uri": "data:application/octet-stream;base64,",
      "byteLength": 744
    },
    {
      "uri": "data:application/octet-stream;base64,",
      "byteLength": 828
    },
    {
      "uri": "data:application/octet-stream;base64,",
      "byteLength": 744
    },
    {
      "uri": "data:application/octet-stream;base64,",
      "byteLength": 496
    },
    {
      "uri": "data:application/octet-stream;base64,",
      "byteLength": 744
    },
    {
      "uri": "data:application/octet-stream;base64,",
      "byteLength": 828
    },
    {
      "uri": "data:application/octet-stream;base64,",
      "byteLength": 744
    },
    {
      "uri": "data:application/octet-stream;base64,",
      "byteLength": 496
    },
    {
      "uri": "data:application/octet-stream;base64,",
      "byteLength": 60
    },
    {
      "uri": "data:application/octet-stream;base64,",
      "byteLength": 36
    },
    {
      "uri": "data:application/octet-stream;base64,",
      "byteLength": 60
    },
    {
      "uri": "data:application/octet-stream;base64,",
      "byteLength": 40
    },
    {
      "uri": "data:application/octet-stream;base64,",
      "byteLength": 348
    },
    {
      "uri": "data:application/octet-stream;base64,",
      "byteLength": 432
    },
    {
      "uri": "data:application/octet-stream;base64,",
      "byteLength": 348
    },
    {
      "uri": "data:application/octet-stream;base64,",
      "byteLength": 232
    },
    {
      "uri": "data:application/octet-stream;base64,",
      "byteLength": 60
    },
    {
      "uri": "data:application/octet-stream;base64,",
      "byteLength": 36
    },
    {
      "uri": "data:application/octet-stream;base64,",
      "byteLength": 60
    },
    {
      "uri": "data:application/octet-stream;base64,",
      "byteLength": 40
    },
    {
      "uri": "data:application/octet-stream;base64,",
      "byteLength": 768
    },
    {
      "uri": "data:application/octet-stream;base64,",
      "byteLength": 864
    },
    {
      "uri": "data:application/octet-stream;base64,",
      "byteLength": 768
    },
    {
      "uri": "data:application/octet-stream;base64,",
      "byteLength": 512
    },
    {
      "uri": "data:application/octet-stream;base64,",
      "byteLength": 768
    },
    {
      "uri": "data:application/octet-stream;base64,",
      "byteLength": 864
    },
    {
      "uri": "data:application/octet-stream;base64,",
      "byteLength": 768
    },
    {
      "uri": "data:application/octet-stream;base64,",
      "byteLength": 512
    }
  ],
  "bufferViews": [
    {
      "buffer": 0,
      "byteLength": 48,
      "target": 34962
    },
    {
      "buffer": 1,
      "byteLength": 24,
      "target": 34963
    },
    {
      "buffer": 2,
      "byteLength": 48,
      "target": 34962
    },
    {
      "buffer": 3,
      "byteLength": 32,
      "target": 34962
    },
    {
      "buffer": 4,
      "byteLength": 1212,
      "target": 34962
    },
    {
      "buffer": 5,
      "byteLength": 1188,
      "target": 34963
    },
    {
      "buffer": 6,
      "byteLength": 1212,
      "target": 34962
    },
    {
      "buffer": 7,
      "byteLength": 808,
      "target": 34962
    },
    {
      "buffer": 8,
      "byteLength": 1224,
      "target": 34962
    },
    {
      "buffer": 9,
      "byteLength": 1200,
      "target": 34963
    },
    {
      "buffer": 10,
      "byteLength": 1224,
      "target": 34962
    },
    {
      "buffer": 11,
      "byteLength": 816,
      "target": 34962
    },
    {
      "buffer": 12,
      "byteLength": 48,
      "target": 34962
    },
    {
      "buffer": 13,
      "byteLength": 24,
      "target": 34963
    },
    {
      "buffer": 14,
      "byteLength": 48,
      "target": 34962
    },
    {
      "buffer": 15,
      "byteLength": 32,
      "target": 34962
    },
    {
      "buffer": 16,
      "byteLength": 72,
      "target": 34962
    },
    {
      "buffer": 17,
      "byteLength": 48,
      "target": 34963
    },
    {
      "buffer": 18,
      "byteLength": 72,
      "target": 34962
    },
    {
      "buffer": 19,
      "byteLength": 48,
      "target": 34962
    },
    {
      "buffer": 20,
      "byteLength": 432,
      "target": 34962
    },
    {
      "buffer": 21,
      "byteLength": 468,
      "target": 34963
    },
    {
      "buffer": 22,
      "byteLength": 432,
      "target": 34962
    },
    {
      "buffer": 23,
      "byteLength": 288,
      "target": 34962
    },
    {
      "buffer": 24,
      "byteLength": 72,
      "target": 34962
    },
    {
      "buffer": 25,
      "byteLength": 48,
      "target": 34963
    },
    {
      "buffer": 26,
      "byteLength": 72,
      "target": 34962
    },
    {
      "buffer": 27,
      "byteLength": 48,
      "target": 34962
    },
    {
      "buffer": 28,
      "byteLength": 744,
      "target": 34962
    },
    {
      "buffer": 29,
      "byteLength": 828,
      "target": 34963
    },
    {
      "buffer": 30,
      "byteLength": 744,
      "target": 34962
    },
    {
      "buffer": 31,
      "byteLength": 496,
      "target": 34962
    },
    {
      "buffer": 32,
      "byteLength": 744,
      "target": 34962
    },
    {
      "buffer": 33,
      "byteLength": 828,
      "target": 34963
    },
    {
      "buffer": 34,
      "byteLength": 744,
      "target": 34962
    },
    {
      "buffer": 35,
      "byteLength": 496,
      "target": 34962
    },
    {
      "buffer": 36,
      "byteLength": 60,
      "target": 34962
    },
    {
      "buffer": 37,
      "byteLength": 36,
      "target": 34963
    },
    {
      "buffer": 38,
      "byteLength": 60,
      "target": 34962
    },
    {
      "buffer": 39,
      "byteLength": 40,
      "target": 34962
    },
    {
      "buffer": 40,
      "byteLength": 348,
      "target": 34962
    },
    {
      "buffer": 41,
      "byteLength": 432,
      "target": 34963
    },
    {
      "buffer": 42,
      "byteLength": 348,
      "target": 34962
    },
    {
      "buffer": 43,
      "byteLength": 232,
      "target": 34962
    },
    {
      "buffer": 44,
      "byteLength": 60,
      "target": 34962
    },
    {
      "buffer": 45,
      "byteLength": 36,
      "target": 34963
    },
    {
      "buffer": 46,
      "byteLength": 60,
      "target": 34962
    },
    {
      "buffer": 47,
      "byteLength": 40,
      "target": 34962
    },
    {
      "buffer": 48,
      "byteLength": 768,
      "target": 34962
    },
    {
      "buffer": 49,
      "byteLength": 864,
      "target": 34963
    },
    {
      "buffer": 50,
      "byteLength": 768,
      "target": 34962
    },
    {
      "buffer": 51,
      "byteLength": 512,
      "target": 34962
    },
    {
      "buffer": 52,
      "byteLength": 768,
      "target": 34962
    },
    {
      "buffer": 53,
      "byteLength": 864,
      "target": 34963
    },
    {
      "buffer": 54,
      "byteLength": 768,
      "target": 34962
    },
    {
      "buffer": 55,
      "byteLength": 512,
      "target": 34962
    }
  ],
  "materials": [
    {
      "pbrMetallicRoughness": {
        "baseColorFactor": [
          0.7921569,
          0.81960785,
          0.93333334,
          1.0
        ]
      }
    }
  ],
  "meshes": [
    {
      "primitives": [
        {
          "attributes": {
            "POSITION": 0,
            "NORMAL": 2,
            "TEXCOORD_0": 3
          },
          "indices": 1,
          "material": 0
        },
        {
          "attributes": {
            "POSITION": 4,
            "NORMAL": 6,
            "TEXCOORD_0": 7
          },
          "indices": 5,
          "material": 0
        },
        {
          "attributes": {
            "POSITION": 8,
            "NORMAL": 10,
            "TEXCOORD_0": 11
          },
          "indices": 9,
          "material": 0
        },
        {
          "attributes": {
            "POSITION": 12,
            "NORMAL": 14,
            "TEXCOORD_0": 15
          },
          "indices": 13,
          "material": 0
        },
        {
          "attributes": {
            "POSITION": 16,
            "NORMAL": 18,
            "TEXCOORD_0": 19
          },
          "indices": 17,
          "material": 0
        },
        {
          "attributes": {
            "POSITION": 20,
            "NORMAL": 22,
            "TEXCOORD_0": 23
          },
          "indices": 21,
          "material": 0
        },
        {
          "attributes": {
            "POSITION": 24,
            "NORMAL": 26,
            "TEXCOORD_0": 27
          },
          "indices": 25,
          "material": 0
        },
        {
          "attributes": {
            "POSITION": 28,
            "NORMAL": 30,
            "TEXCOORD_0": 31
          },
          "indices": 29,
          "material": 0
        },
        {
          "attributes": {
            "POSITION": 32,
            "NORMAL": 34,
            "TEXCOORD_0": 35
          },
          "indices": 33,
          "material": 0
        },
        {
          "attributes": {
            "POSITION": 36,
            "NORMAL": 38,
            "TEXCOORD_0": 39
          },
          "indices": 37,
          "material": 0
        },
        {
          "attributes": {
            "POSITION": 40,
            "NORMAL": 42,
            "TEXCOORD_0": 43
          },
          "indices": 41,
          "material": 0
        },
        {
          "attributes": {
            "POSITION": 44,
            "NORMAL": 46,
            "TEXCOORD_0": 47
          },
          "indices": 45,
          "material": 0
        },
        {
          "attributes": {
            "POSITION": 48,
            "NORMAL": 50,
            "TEXCOORD_0": 51
          },
          "indices": 49,
          "material": 0
        },
        {
          "attributes": {
            "POSITION": 52,
            "NORMAL": 54,
            "TEXCOORD_0": 55
          },
          "indices": 53,
          "material": 0
        }
      ]
    }
  ],
  "nodes": [
    {
      "mesh": 0,
      "name": "NONE"
    }
  ],
  "samplers": [
    {
      "magFilter": 9729,
      "minFilter": 9729
    }
  ],
  "scene": 0,
  "scenes": [
    {
      "nodes": [
        0
      ],
      "extensions": {}
    }
  ],
  "extensions": {}
}