{
  "extensionsUsed": [
    "KHR_materials_transmission",
    "KHR_materials_clearcoat",
    "KHR_materials_ior",
    "KHR_materials_specular",
    "KHR_materials_emissive_strength",
    "KHR_texture_transform"
  ],
  "accessors": [
    {
      "bufferView": 0,
      "componentType": 5126,
      "count": 36,
      "type": "VEC3",
      "max": [
        -0.08344374,
        -0.2439653,
        0.29091752
      ],
      "min": [
        -0.097427934,
        -0.2539653,
        0.2709175
      ]
    },
    {
      "bufferView": 1,
      "componentType": 5125,
      "count": 120,
      "type": "SCALAR",
      "max": [
        35.0
      ],
      "min": [
        0.0
      ]
    },
    {
      "bufferView": 2,
      "componentType": 5126,
      "count": 36,
      "type": "VEC3",
      "max": [
        0.0,
        1.0,
        1.0
      ],
      "min": [
        0.0,
        -6.123234E-17,
        -1.0
      ]
    },
    {
      "bufferView": 3,
      "componentType": 5126,
      "count": 36,
      "type": "VEC2",
      "max": [
        0.031034688,
        0.0797588
      ],
      "min": [
        0.0,
        0.06585471
      ]
    },
    {
      "bufferView": 4,
      "componentType": 5126,
      "count": 36,
      "type": "VEC3",
      "max": [
        0.0990584,
        -0.2439653,
        0.29091752
      ],
      "min": [
        0.0850742,
        -0.2539653,
        0.2709175
      ]
    },
    {
      "bufferView": 5,
      "componentType": 5125,
      "count": 120,
      "type": "SCALAR",
      "max": [
        35.0
      ],
      "min": [
        0.0
      ]
    },
    {
      "bufferView": 6,
      "componentType": 5126,
      "count": 36,
      "type": "VEC3",
      "max": [
        0.0,
        1.0,
        1.0
      ],
      "min": [
        0.0,
        -6.123234E-17,
        -1.0
      ]
    },
    {
      "bufferView": 7,
      "componentType": 5126,
      "count": 36,
      "type": "VEC2",
      "max": [
        0.031034688,
        0.013904094
      ],
      "min": [
        0.0,
        0.0
      ]
    },
    {
      "bufferView": 8,
      "componentType": 5126,
      "count": 7,
      "type": "VEC3",
      "max": [
        0.06414997,
        -0.5007295,
        0.45841
      ],
      "min": [
        -0.062519506,
        -0.5089653,
        0.1809175
      ]
    },
    {
      "bufferView": 9,
      "componentType": 5125,
      "count": 15,
      "type": "SCALAR",
      "max": [
        6.0
      ],
      "min": [
        0.0
      ]
    },
    {
      "bufferView": 10,
      "componentType": 5126,
      "count": 7,
      "type": "VEC3",
      "max": [
        2.7743828E-11,
        -0.9995599,
        0.029666243
      ],
      "min": [
        2.7743828E-11,
        -0.9995599,
        0.029666243
      ]
    },
    {
      "bufferView": 11,
      "componentType": 5126,
      "count": 7,
      "type": "VEC2",
      "max": [
        0.57560587,
        0.43972903
      ],
      "min": [
        0.2995814,
        0.31524998
      ]
    },
    {
      "bufferView": 12,
      "componentType": 5126,
      "count": 100,
      "type": "VEC3",
      "max": [
        0.10281523,
        -0.2189653,
        0.4959175
      ],
      "min": [
        -0.10118477,
        -0.2189653,
        0.1809175
      ]
    },
    {
      "bufferView": 13,
      "componentType": 5125,
      "count": 294,
      "type": "SCALAR",
      "max": [
        99.0
      ],
      "min": [
        0.0
      ]
    },
    {
      "bufferView": 14,
      "componentType": 5126,
      "count": 100,
      "type": "VEC3",
      "max": [
        0.0,
        1.0,
        0.0
      ],
      "min": [
        0.0,
        1.0,
        0.0
      ]
    },
    {
      "bufferView": 15,
      "componentType": 5126,
      "count": 100,
      "type": "VEC2",
      "max": [
        0.61277634,
        0.2013666
      ],
      "min": [
        0.29958072,
        0.0
      ]
    },
    {
      "bufferView": 16,
      "componentType": 5126,
      "count": 31,
      "type": "VEC3",
      "max": [
        -0.076808915,
        -0.2189653,
        0.47319317
      ],
      "min": [
        -0.10118477,
        -0.49034593,
        0.1809175
      ]
    },
    {
      "bufferView": 17,
      "componentType": 5125,
      "count": 93,
      "type": "SCALAR",
      "max": [
        30.0
      ],
      "min": [
        0.0
      ]
    },
    {
      "bufferView": 18,
      "componentType": 5126,
      "count": 31,
      "type": "VEC3",
      "max": [
        -0.9973761,
        -0.06880209,
        0.022521395
      ],
      "min": [
        -0.9973761,
        -0.06880209,
        0.022521395
      ]
    },
    {
      "bufferView": 19,
      "componentType": 5126,
      "count": 31,
      "type": "VEC2",
      "max": [
        0.57385087,
        0.7101963
      ],
      "min": [
        0.28317568,
        0.44119388
      ]
    },
    {
      "bufferView": 20,
      "componentType": 5126,
      "count": 30,
      "type": "VEC3",
      "max": [
        0.07796963,
        -0.2189653,
        0.4959175
      ],
      "min": [
        -0.07633917,
        -0.48216572,
        0.47579074
      ]
    },
    {
      "bufferView": 21,
      "componentType": 5125,
      "count": 102,
      "type": "SCALAR",
      "max": [
        29.0
      ],
      "min": [
        0.0
      ]
    },
    {
      "bufferView": 22,
      "componentType": 5126,
      "count": 30,
      "type": "VEC3",
      "max": [
        0.08505658,
        -0.06849849,
        0.99763036
      ],
      "min": [
        -0.08505658,
        -0.06922344,
        0.99396855
      ]
    },
    {
      "bufferView": 23,
      "componentType": 5126,
      "count": 30,
      "type": "VEC2",
      "max": [
        0.43531802,
        0.9743207
      ],
      "min": [
        0.28317568,
        0.71166116
      ]
    },
    {
      "bufferView": 24,
      "componentType": 5126,
      "count": 30,
      "type": "VEC3",
      "max": [
        0.10281523,
        -0.2189653,
        0.47319317
      ],
      "min": [
        0.07843938,
        -0.49034593,
        0.1809175
      ]
    },
    {
      "bufferView": 25,
      "componentType": 5125,
      "count": 90,
      "type": "SCALAR",
      "max": [
        29.0
      ],
      "min": [
        0.0
      ]
    },
    {
      "bufferView": 26,
      "componentType": 5126,
      "count": 30,
      "type": "VEC3",
      "max": [
        0.9973761,
        -0.06880209,
        0.022521395
      ],
      "min": [
        0.9973761,
        -0.06880209,
        0.022521395
      ]
    },
    {
      "bufferView": 27,
      "componentType": 5126,
      "count": 30,
      "type": "VEC2",
      "max": [
        0.9982722,
        0.82725525
      ],
      "min": [
        0.6396143,
        0.49247468
      ]
    },
    {
      "bufferView": 28,
      "componentType": 5126,
      "count": 94,
      "type": "VEC3",
      "max": [
        0.10281523,
        -0.2189653,
        0.1809175
      ],
      "min": [
        -0.10118477,
        -0.5089653,
        0.1809175
      ]
    },
    {
      "bufferView": 29,
      "componentType": 5125,
      "count": 276,
      "type": "SCALAR",
      "max": [
        93.0
      ],
      "min": [
        0.0
      ]
    },
    {
      "bufferView": 30,
      "componentType": 5126,
      "count": 94,
      "type": "VEC3",
      "max": [
        -1.110223E-16,
        -8.326673E-17,
        -1.0
      ],
      "min": [
        -1.3605675E-16,
        -1.05094495E-16,
        -1.0
      ]
    },
    {
      "bufferView": 31,
      "componentType": 5126,
      "count": 94,
      "type": "VEC2",
      "max": [
        0.63814944,
        0.99853516
      ],
      "min": [
        0.43678287,
        0.71166116
      ]
    },
    {
      "bufferView": 32,
      "componentType": 5126,
      "count": 14,
      "type": "VEC3",
      "max": [
        0.056677986,
        -0.48795027,
        0.45077932
      ],
      "min": [
        -0.055047523,
        -0.49595955,
        0.1809175
      ]
    },
    {
      "bufferView": 33,
      "componentType": 5125,
      "count": 36,
      "type": "SCALAR",
      "max": [
        13.0
      ],
      "min": [
        0.0
      ]
    },
    {
      "bufferView": 34,
      "componentType": 5126,
      "count": 14,
      "type": "VEC3",
      "max": [
        -2.7742796E-11,
        0.9995599,
        -0.029666243
      ],
      "min": [
        -2.7742796E-11,
        0.9995599,
        -0.029666243
      ]
    },
    {
      "bufferView": 35,
      "componentType": 5126,
      "count": 14,
      "type": "VEC2",
      "max": [
        0.5696255,
        0.3131273
      ],
      "min": [
        0.30119133,
        0.20348927
      ]
    },
    {
      "bufferView": 36,
      "componentType": 5126,
      "count": 32,
      "type": "VEC3",
      "max": [
        -0.06449758,
        -0.2189653,
        0.46565238
      ],
      "min": [
        -0.08815057,
        -0.48199502,
        0.1809175
      ]
    },
    {
      "bufferView": 37,
      "componentType": 5125,
      "count": 102,
      "type": "SCALAR",
      "max": [
        31.0
      ],
      "min": [
        0.0
      ]
    },
    {
      "bufferView": 38,
      "componentType": 5126,
      "count": 32,
      "type": "VEC3",
      "max": [
        0.9973761,
        0.06880209,
        -0.022521395
      ],
      "min": [
        0.9973761,
        0.06880209,
        -0.022521395
      ]
    },
    {
      "bufferView": 39,
      "componentType": 5126,
      "count": 32,
      "type": "VEC2",
      "max": [
        0.28171083,
        0.9773748
      ],
      "min": [
        0.0,
        0.7152302
      ]
    },
    {
      "bufferView": 40,
      "componentType": 5126,
      "count": 37,
      "type": "VEC3",
      "max": [
        0.06954432,
        -0.2189653,
        0.48288658
      ],
      "min": [
        -0.06791386,
        -0.4740298,
        0.4637844
      ]
    },
    {
      "bufferView": 41,
      "componentType": 5125,
      "count": 132,
      "type": "SCALAR",
      "max": [
        36.0
      ],
      "min": [
        0.0
      ]
    },
    {
      "bufferView": 42,
      "componentType": 5126,
      "count": 37,
      "type": "VEC3",
      "max": [
        0.076867685,
        0.06915045,
        -0.9946404
      ],
      "min": [
        -0.076867685,
        0.06858377,
        -0.99763036
      ]
    },
    {
      "bufferView": 43,
      "componentType": 5126,
      "count": 37,
      "type": "VEC2",
      "max": [
        0.2560143,
        0.70245385
      ],
      "min": [
        0.0015269208,
        0.565579
      ]
    },
    {
      "bufferView": 44,
      "componentType": 5126,
      "count": 32,
      "type": "VEC3",
      "max": [
        0.08978103,
        -0.2189653,
        0.46565238
      ],
      "min": [
        0.066128045,
        -0.48199502,
        0.1809175
      ]
    },
    {
      "bufferView": 45,
      "componentType": 5125,
      "count": 102,
      "type": "SCALAR",
      "max": [
        31.0
      ],
      "min": [
        0.0
      ]
    },
    {
      "bufferView": 46,
      "componentType": 5126,
      "count": 32,
      "type": "VEC3",
      "max": [
        -0.9973761,
        0.06880209,
        -0.022521395
      ],
      "min": [
        -0.9973761,
        0.06880209,
        -0.022521395
      ]
    },
    {
      "bufferView": 47,
      "componentType": 5126,
      "count": 32,
      "type": "VEC2",
      "max": [
        0.99002844,
        0.32485268
      ],
      "min": [
        0.6396143,
        0.0
      ]
    },
    {
      "bufferView": 48,
      "componentType": 5126,
      "count": 72,
      "type": "VEC3",
      "max": [
        0.05982519,
        -0.48211434,
        0.4777693
      ],
      "min": [
        -0.058194727,
        -0.5007869,
        0.45647562
      ]
    },
    {
      "bufferView": 49,
      "componentType": 5125,
      "count": 294,
      "type": "SCALAR",
      "max": [
        71.0
      ],
      "min": [
        0.0
      ]
    },
    {
      "bufferView": 50,
      "componentType": 5126,
      "count": 72,
      "type": "VEC3",
      "max": [
        0.06666643,
        -0.06849849,
        0.99763036
      ],
      "min": [
        -0.06666643,
        -0.9995599,
        0.029666243
      ]
    },
    {
      "bufferView": 51,
      "componentType": 5126,
      "count": 72,
      "type": "VEC2",
      "max": [
        0.11742738,
        0.27434254
      ],
      "min": [
        0.0,
        0.24509981
      ]
    },
    {
      "bufferView": 52,
      "componentType": 5126,
      "count": 52,
      "type": "VEC3",
      "max": [
        -0.058194727,
        -0.2189653,
        0.49262267
      ],
      "min": [
        -0.094584994,
        -0.48265246,
        0.45633274
      ]
    },
    {
      "bufferView": 53,
      "componentType": 5125,
      "count": 168,
      "type": "SCALAR",
      "max": [
        51.0
      ],
      "min": [
        0.0
      ]
    },
    {
      "bufferView": 54,
      "componentType": 5126,
      "count": 52,
      "type": "VEC3",
      "max": [
        -0.066666424,
        -0.06849849,
        0.9954213
      ],
      "min": [
        -0.9973762,
        -0.09283743,
        0.022516178
      ]
    },
    {
      "bufferView": 55,
      "componentType": 5126,
      "count": 52,
      "type": "VEC2",
      "max": [
        0.26331308,
        0.11710345
      ],
      "min": [
        0.0,
        0.08780628
      ]
    },
    {
      "bufferView": 56,
      "componentType": 5126,
      "count": 96,
      "type": "VEC3",
      "max": [
        -0.056861397,
        -0.48216572,
        0.47579074
      ],
      "min": [
        -0.076808915,
        -0.5007869,
        0.45633274
      ]
    },
    {
      "bufferView": 57,
      "componentType": 5125,
      "count": 426,
      "type": "SCALAR",
      "max": [
        95.0
      ],
      "min": [
        0.0
      ]
    },
    {
      "bufferView": 58,
      "componentType": 5126,
      "count": 96,
      "type": "VEC3",
      "max": [
        -3.633067E-18,
        -0.06849849,
        0.9954213
      ],
      "min": [
        -0.9973761,
        -0.9995599,
        0.022521395
      ]
    },
    {
      "bufferView": 59,
      "componentType": 5126,
      "count": 96,
      "type": "VEC2",
      "max": [
        0.22179326,
        0.029794438
      ],
      "min": [
        0.19116415,
        0.0005884654
      ]
    },
    {
      "bufferView": 60,
      "componentType": 5126,
      "count": 47,
      "type": "VEC3",
      "max": [
        -0.056861397,
        -0.48217177,
        0.4566028
      ],
      "min": [
        -0.0824641,
        -0.5089653,
        0.1809175
      ]
    },
    {
      "bufferView": 61,
      "componentType": 5125,
      "count": 153,
      "type": "SCALAR",
      "max": [
        46.0
      ],
      "min": [
        0.0
      ]
    },
    {
      "bufferView": 62,
      "componentType": 5126,
      "count": 47,
      "type": "VEC3",
      "max": [
        2.560104E-11,
        -0.06880209,
        0.03603366
      ],
      "min": [
        -0.9973761,
        -0.9995599,
        0.022521395
      ]
    },
    {
      "bufferView": 63,
      "componentType": 5126,
      "count": 47,
      "type": "VEC2",
      "max": [
        0.27428475,
        0.16075253
      ],
      "min": [
        0.0,
        0.1309767
      ]
    },
    {
      "bufferView": 64,
      "componentType": 5126,
      "count": 52,
      "type": "VEC3",
      "max": [
        0.09621546,
        -0.2189653,
        0.49262267
      ],
      "min": [
        0.05982519,
        -0.48265246,
        0.45633274
      ]
    },
    {
      "bufferView": 65,
      "componentType": 5125,
      "count": 168,
      "type": "SCALAR",
      "max": [
        51.0
      ],
      "min": [
        0.0
      ]
    },
    {
      "bufferView": 66,
      "componentType": 5126,
      "count": 52,
      "type": "VEC3",
      "max": [
        0.9973762,
        -0.06849849,
        0.9954213
      ],
      "min": [
        0.066666424,
        -0.09283744,
        0.022516178
      ]
    },
    {
      "bufferView": 67,
      "componentType": 5126,
      "count": 52,
      "type": "VEC2",
      "max": [
        0.26331308,
        0.5622292
      ],
      "min": [
        0.0,
        0.53293204
      ]
    },
    {
      "bufferView": 68,
      "componentType": 5126,
      "count": 96,
      "type": "VEC3",
      "max": [
        0.07843938,
        -0.48216572,
        0.47579074
      ],
      "min": [
        0.05849186,
        -0.5007869,
        0.45633274
      ]
    },
    {
      "bufferView": 69,
      "componentType": 5125,
      "count": 426,
      "type": "SCALAR",
      "max": [
        95.0
      ],
      "min": [
        0.0
      ]
    },
    {
      "bufferView": 70,
      "componentType": 5126,
      "count": 96,
      "type": "VEC3",
      "max": [
        0.9973761,
        -0.06849849,
        0.9954213
      ],
      "min": [
        -3.633067E-18,
        -0.9995599,
        0.022521395
      ]
    },
    {
      "bufferView": 71,
      "componentType": 5126,
      "count": 96,
      "type": "VEC2",
      "max": [
        0.22179326,
        0.07369758
      ],
      "min": [
        0.19116415,
        0.044491604
      ]
    },
    {
      "bufferView": 72,
      "componentType": 5126,
      "count": 46,
      "type": "VEC3",
      "max": [
        0.08409456,
        -0.48217177,
        0.4566028
      ],
      "min": [
        0.05849186,
        -0.5089653,
        0.1809175
      ]
    },
    {
      "bufferView": 73,
      "componentType": 5125,
      "count": 150,
      "type": "SCALAR",
      "max": [
        45.0
      ],
      "min": [
        0.0
      ]
    },
    {
      "bufferView": 74,
      "componentType": 5126,
      "count": 46,
      "type": "VEC3",
      "max": [
        0.9973761,
        -0.06880209,
        0.03606573
      ],
      "min": [
        -8.153714E-11,
        -0.9995599,
        0.022521395
      ]
    },
    {
      "bufferView": 75,
      "componentType": 5126,
      "count": 46,
      "type": "VEC2",
      "max": [
        0.27428538,
        0.20462824
      ],
      "min": [
        0.0,
        0.17485242
      ]
    },
    {
      "bufferView": 76,
      "componentType": 5126,
      "count": 62,
      "type": "VEC3",
      "max": [
        0.07163643,
        -0.4740331,
        0.4493867
      ],
      "min": [
        0.051167402,
        -0.49595955,
        0.1809175
      ]
    },
    {
      "bufferView": 77,
      "componentType": 5125,
      "count": 198,
      "type": "SCALAR",
      "max": [
        61.0
      ],
      "min": [
        0.0
      ]
    },
    {
      "bufferView": 78,
      "componentType": 5126,
      "count": 62,
      "type": "VEC3",
      "max": [
        1.1176465E-10,
        0.9995599,
        -0.022521395
      ],
      "min": [
        -0.9973761,
        0.06880209,
        -0.036065307
      ]
    },
    {
      "bufferView": 79,
      "componentType": 5126,
      "count": 62,
      "type": "VEC2",
      "max": [
        0.26710466,
        0.46352574
      ],
      "min": [
        0.0,
        0.44119388
      ]
    },
    {
      "bufferView": 80,
      "componentType": 5126,
      "count": 49,
      "type": "VEC3",
      "max": [
        0.08335153,
        -0.2189653,
        0.4802345
      ],
      "min": [
        0.05204942,
        -0.4743995,
        0.44918352
      ]
    },
    {
      "bufferView": 81,
      "componentType": 5125,
      "count": 159,
      "type": "SCALAR",
      "max": [
        48.0
      ],
      "min": [
        0.0
      ]
    },
    {
      "bufferView": 82,
      "componentType": 5126,
      "count": 49,
      "type": "VEC3",
      "max": [
        -0.058801096,
        0.093229376,
        -0.022521386
      ],
      "min": [
        -0.9973761,
        0.06858373,
        -0.995911
      ]
    },
    {
      "bufferView": 83,
      "componentType": 5126,
      "count": 49,
      "type": "VEC2",
      "max": [
        0.2566174,
        0.39818472
      ],
      "min": [
        0.0015375257,
        0.3760956
      ]
    },
    {
      "bufferView": 84,
      "componentType": 5126,
      "count": 113,
      "type": "VEC3",
      "max": [
        0.066128045,
        -0.4740298,
        0.4637844
      ],
      "min": [
        0.051167402,
        -0.48799443,
        0.44918352
      ]
    },
    {
      "bufferView": 85,
      "componentType": 5125,
      "count": 477,
      "type": "SCALAR",
      "max": [
        112.0
      ],
      "min": [
        0.0
      ]
    },
    {
      "bufferView": 86,
      "componentType": 5126,
      "count": 113,
      "type": "VEC3",
      "max": [
        3.633067E-18,
        0.9995599,
        -0.022521395
      ],
      "min": [
        -0.9973761,
        0.06858373,
        -0.995911
      ]
    },
    {
      "bufferView": 87,
      "componentType": 5126,
      "count": 113,
      "type": "VEC2",
      "max": [
        0.1328239,
        0.0662477
      ],
      "min": [
        0.1098522,
        0.04434449
      ]
    },
    {
      "bufferView": 88,
      "componentType": 5126,
      "count": 63,
      "type": "VEC3",
      "max": [
        0.05204942,
        -0.47398892,
        0.4652988
      ],
      "min": [
        -0.050418958,
        -0.48799443,
        0.44929072
      ]
    },
    {
      "bufferView": 89,
      "componentType": 5125,
      "count": 228,
      "type": "SCALAR",
      "max": [
        62.0
      ],
      "min": [
        0.0
      ]
    },
    {
      "bufferView": 90,
      "componentType": 5126,
      "count": 63,
      "type": "VEC3",
      "max": [
        0.0588011,
        0.9995599,
        -0.029666243
      ],
      "min": [
        -0.0588011,
        0.06858373,
        -0.99763036
      ]
    },
    {
      "bufferView": 91,
      "componentType": 5126,
      "count": 63,
      "type": "VEC2",
      "max": [
        0.10193708,
        0.51160127
      ],
      "min": [
        0.0,
        0.48971245
      ]
    },
    {
      "bufferView": 92,
      "componentType": 5126,
      "count": 49,
      "type": "VEC3",
      "max": [
        -0.050418958,
        -0.2189653,
        0.4802345
      ],
      "min": [
        -0.08172107,
        -0.4743995,
        0.44918352
      ]
    },
    {
      "bufferView": 93,
      "componentType": 5125,
      "count": 159,
      "type": "SCALAR",
      "max": [
        48.0
      ],
      "min": [
        0.0
      ]
    },
    {
      "bufferView": 94,
      "componentType": 5126,
      "count": 49,
      "type": "VEC3",
      "max": [
        0.9973761,
        0.09322937,
        -0.022521386
      ],
      "min": [
        0.0588011,
        0.06858373,
        -0.995911
      ]
    },
    {
      "bufferView": 95,
      "componentType": 5126,
      "count": 49,
      "type": "VEC2",
      "max": [
        0.25661698,
        0.43073386
      ],
      "min": [
        0.0015371243,
        0.40864468
      ]
    },
    {
      "bufferView": 96,
      "componentType": 5126,
      "count": 96,
      "type": "VEC3",
      "max": [
        -0.04953694,
        -0.4740298,
        0.4637844
      ],
      "min": [
        -0.06449758,
        -0.48799443,
        0.44918352
      ]
    },
    {
      "bufferView": 97,
      "componentType": 5125,
      "count": 426,
      "type": "SCALAR",
      "max": [
        95.0
      ],
      "min": [
        0.0
      ]
    },
    {
      "bufferView": 98,
      "componentType": 5126,
      "count": 96,
      "type": "VEC3",
      "max": [
        0.9973761,
        0.9995599,
        -0.022521395
      ],
      "min": [
        3.633067E-18,
        0.06858373,
        -0.995911
      ]
    },
    {
      "bufferView": 99,
      "componentType": 5126,
      "count": 96,
      "type": "VEC2",
      "max": [
        0.1328239,
        0.022344565
      ],
      "min": [
        0.1098522,
        0.0004413492
      ]
    },
    {
      "bufferView": 100,
      "componentType": 5126,
      "count": 44,
      "type": "VEC3",
      "max": [
        -0.04953694,
        -0.4740331,
        0.44938612
      ],
      "min": [
        -0.07000597,
        -0.49595955,
        0.1809175
      ]
    },
    {
      "bufferView": 101,
      "componentType": 5125,
      "count": 144,
      "type": "SCALAR",
      "max": [
        43.0
      ],
      "min": [
        0.0
      ]
    },
    {
      "bufferView": 102,
      "componentType": 5126,
      "count": 44,
      "type": "VEC3",
      "max": [
        0.9973761,
        0.9995599,
        -0.022521395
      ],
      "min": [
        -3.6748205E-11,
        0.06880209,
        -0.03606573
      ]
    },
    {
      "bufferView": 103,
      "componentType": 5126,
      "count": 44,
      "type": "VEC2",
      "max": [
        0.26871115,
        0.487785
      ],
      "min": [
        0.0016060123,
        0.46545315
      ]
    },
    {
      "bufferView": 104,
      "componentType": 5126,
      "count": 4,
      "type": "VEC3",
      "max": [
        0.08893561,
        -0.22696531,
        0.21191749
      ],
      "min": [
        -0.08730515,
        -0.22696531,
        0.1939175
      ]
    },
    {
      "bufferView": 105,
      "componentType": 5125,
      "count": 6,
      "type": "SCALAR",
      "max": [
        3.0
      ],
      "min": [
        0.0
      ]
    },
    {
      "bufferView": 106,
      "componentType": 5126,
      "count": 4,
      "type": "VEC3",
      "max": [
        0.0,
        1.0,
        -5.551115E-17
      ],
      "min": [
        -1.6496033E-32,
        1.0,
        -1.05094495E-16
      ]
    },
    {
      "bufferView": 107,
      "componentType": 5126,
      "count": 4,
      "type": "VEC2",
      "max": [
        0.17523122,
        0.23662502
      ],
      "min": [
        0.0,
        0.21872813
      ]
    },
    {
      "bufferView": 108,
      "componentType": 5126,
      "count": 4,
      "type": "VEC3",
      "max": [
        0.086866125,
        -0.2569653,
        0.21191749
      ],
      "min": [
        -0.08523566,
        -0.2569653,
        0.1939175
      ]
    },
    {
      "bufferView": 109,
      "componentType": 5125,
      "count": 6,
      "type": "SCALAR",
      "max": [
        3.0
      ],
      "min": [
        0.0
      ]
    },
    {
      "bufferView": 110,
      "componentType": 5126,
      "count": 4,
      "type": "VEC3",
      "max": [
        1.6891407E-32,
        -1.0,
        1.05094495E-16
      ],
      "min": [
        0.0,
        -1.0,
        0.0
      ]
    },
    {
      "bufferView": 111,
      "componentType": 5126,
      "count": 4,
      "type": "VEC2",
      "max": [
        0.17111595,
        0.5313873
      ],
      "min": [
        0.0,
        0.51349044
      ]
    },
    {
      "bufferView": 112,
      "componentType": 5126,
      "count": 4,
      "type": "VEC3",
      "max": [
        0.08852917,
        -0.22696531,
        0.21191749
      ],
      "min": [
        -0.08689871,
        -0.2569653,
        0.21191749
      ]
    },
    {
      "bufferView": 113,
      "componentType": 5125,
      "count": 6,
      "type": "SCALAR",
      "max": [
        3.0
      ],
      "min": [
        0.0
      ]
    },
    {
      "bufferView": 114,
      "componentType": 5126,
      "count": 4,
      "type": "VEC3",
      "max": [
        1.5696381E-16,
        1.082785E-17,
        1.0
      ],
      "min": [
        1.3877788E-16,
        0.0,
        1.0
      ]
    },
    {
      "bufferView": 115,
      "componentType": 5126,
      "count": 4,
      "type": "VEC2",
      "max": [
        0.17442298,
        0.3180181
      ],
      "min": [
        0.0,
        0.28818998
      ]
    },
    {
      "bufferView": 116,
      "componentType": 5126,
      "count": 4,
      "type": "VEC3",
      "max": [
        0.08893561,
        -0.22696531,
        0.1939175
      ],
      "min": [
        -0.08730515,
        -0.2569653,
        0.1939175
      ]
    },
    {
      "bufferView": 117,
      "componentType": 5125,
      "count": 6,
      "type": "SCALAR",
      "max": [
        3.0
      ],
      "min": [
        0.0
      ]
    },
    {
      "bufferView": 118,
      "componentType": 5126,
      "count": 4,
      "type": "VEC3",
      "max": [
        -1.5696381E-16,
        0.0,
        -1.0
      ],
      "min": [
        -1.6653345E-16,
        -1.082785E-17,
        -1.0
      ]
    },
    {
      "bufferView": 119,
      "componentType": 5126,
      "count": 4,
      "type": "VEC2",
      "max": [
        0.17523122,
        0.36197093
      ],
      "min": [
        0.0,
        0.3321428
      ]
    },
    {
      "bufferView": 120,
      "componentType": 5126,
      "count": 36,
      "type": "VEC3",
      "max": [
        0.09955678,
        -0.23396531,
        0.29091752
      ],
      "min": [
        0.085572585,
        -0.2439653,
        0.2709175
      ]
    },
    {
      "bufferView": 121,
      "componentType": 5125,
      "count": 120,
      "type": "SCALAR",
      "max": [
        35.0
      ],
      "min": [
        0.0
      ]
    },
    {
      "bufferView": 122,
      "componentType": 5126,
      "count": 36,
      "type": "VEC3",
      "max": [
        0.0,
        6.123234E-17,
        1.0
      ],
      "min": [
        0.0,
        -1.0,
        -1.0
      ]
    },
    {
      "bufferView": 123,
      "componentType": 5126,
      "count": 36,
      "type": "VEC2",
      "max": [
        0.031034688,
        0.035855662
      ],
      "min": [
        0.0,
        0.02195157
      ]
    },
    {
      "bufferView": 124,
      "componentType": 5126,
      "count": 36,
      "type": "VEC3",
      "max": [
        -0.08394212,
        -0.23396531,
        0.29091752
      ],
      "min": [
        -0.09792632,
        -0.2439653,
        0.2709175
      ]
    },
    {
      "bufferView": 125,
      "componentType": 5125,
      "count": 120,
      "type": "SCALAR",
      "max": [
        35.0
      ],
      "min": [
        0.0
      ]
    },
    {
      "bufferView": 126,
      "componentType": 5126,
      "count": 36,
      "type": "VEC3",
      "max": [
        0.0,
        6.123234E-17,
        1.0
      ],
      "min": [
        0.0,
        -1.0,
        -1.0
      ]
    },
    {
      "bufferView": 127,
      "componentType": 5126,
      "count": 36,
      "type": "VEC2",
      "max": [
        0.031034688,
        0.057807233
      ],
      "min": [
        0.0,
        0.04390314
      ]
    }
  ],
  "asset": {
    "version": "2.0"
  },
  "buffers": [
    {
      "uri": "data:application/octet-stream;base64,",
      "byteLength": 432
    },
    {
      "uri": "data:application/octet-stream;base64,",
      "byteLength": 480
    },
    {
      "uri": "data:application/octet-stream;base64,",
      "byteLength": 432
    },
    {
      "uri": "data:application/octet-stream;base64,",
      "byteLength": 288
    },
    {
      "uri": "data:application/octet-stream;base64,",
      "byteLength": 432
    },
    {
      "uri": "data:application/octet-stream;base64,",
      "byteLength": 480
    },
    {
      "uri": "data:application/octet-stream;base64,",
      "byteLength": 432
    },
    {
      "uri": "data:application/octet-stream;base64,",
      "byteLength": 288
    },
    {
      "uri": "data:application/octet-stream;base64,",
      "byteLength": 84
    },
    {
      "uri": "data:application/octet-stream;base64,",
      "byteLength": 60
    },
    {
      "uri": "data:application/octet-stream;base64,",
      "byteLength": 84
    },
    {
      "uri": "data:application/octet-stream;base64,",
      "byteLength": 56
    },
    {
      "uri": "data:application/octet-stream;base64,",
      "byteLength": 1200
    },
    {
      "uri": "data:application/octet-stream;base64,",
      "byteLength": 1176
    },
    {
      "uri": "data:application/octet-stream;base64,",
      "byteLength": 1200
    },
    {
      "uri": "data:application/octet-stream;base64,",
      "byteLength": 800
    },
    {
      "uri": "data:application/octet-stream;base64,",
      "byteLength": 372
    },
    {
      "uri": "data:application/octet-stream;base64,",
      "byteLength": 372
    },
    {
      "uri": "data:application/octet-stream;base64,",
      "byteLength": 372
    },
    {
      "uri": "data:application/octet-stream;base64,",
      "byteLength": 248
    },
    {
      "uri": "data:application/octet-stream;base64,",
      "byteLength": 360
    },
    {
      "uri": "data:application/octet-stream;base64,",
      "byteLength": 408
    },
    {
      "uri": "data:application/octet-stream;base64,",
      "byteLength": 360
    },
    {
      "uri": "data:application/octet-stream;base64,",
      "byteLength": 240
    },
    {
      "uri": "data:application/octet-stream;base64,",
      "byteLength": 360
    },
    {
      "uri": "data:application/octet-stream;base64,",
      "byteLength": 360
    },
    {
      "uri": "data:application/octet-stream;base64,",
      "byteLength": 360
    },
    {
      "uri": "data:application/octet-stream;base64,",
      "byteLength": 240
    },
    {
      "uri": "data:application/octet-stream;base64,",
      "byteLength": 1128
    },
    {
      "uri": "data:application/octet-stream;base64,",
      "byteLength": 1104
    },
    {
      "uri": "data:application/octet-stream;base64,",
      "byteLength": 1128
    },
    {
      "uri": "data:application/octet-stream;base64,",
      "byteLength": 752
    },
    {
      "uri": "data:application/octet-stream;base64,",
      "byteLength": 168
    },
    {
      "uri": "data:application/octet-stream;base64,",
      "byteLength": 144
    },
    {
      "uri": "data:application/octet-stream;base64,",
      "byteLength": 168
    },
    {
      "uri": "data:application/octet-stream;base64,",
      "byteLength": 112
    },
    {
      "uri": "data:application/octet-stream;base64,",
      "byteLength": 384
    },
    {
      "uri": "data:application/octet-stream;base64,",
      "byteLength": 408
    },
    {
      "uri": "data:application/octet-stream;base64,",
      "byteLength": 384
    },
    {
      "uri": "data:application/octet-stream;base64,",
      "byteLength": 256
    },
    {
      "uri": "data:application/octet-stream;base64,",
      "byteLength": 444
    },
    {
      "uri": "data:application/octet-stream;base64,",
      "byteLength": 528
    },
    {
      "uri": "data:application/octet-stream;base64,",
      "byteLength": 444
    },
    {
      "uri": "data:application/octet-stream;base64,",
      "byteLength": 296
    },
    {
      "uri": "data:application/octet-stream;base64,",
      "byteLength": 384
    },
    {
      "uri": "data:application/octet-stream;base64,",
      "byteLength": 408
    },
    {
      "uri": "data:application/octet-stream;base64,",
      "byteLength": 384
    },
    {
      "uri": "data:application/octet-stream;base64,",
      "byteLength": 256
    },
    {
      "uri": "data:application/octet-stream;base64,",
      "byteLength": 864
    },
    {
      "uri": "data:application/octet-stream;base64,",
      "byteLength": 1176
    },
    {
      "uri": "data:application/octet-stream;base64,",
      "byteLength": 864
    },
    {
      "uri": "data:application/octet-stream;base64,",
      "byteLength": 576
    },
    {
      "uri": "data:application/octet-stream;base64,",
      "byteLength": 624
    },
    {
      "uri": "data:application/octet-stream;base64,",
      "byteLength": 672
    },
    {
      "uri": "data:application/octet-stream;base64,",
      "byteLength": 624
    },
    {
      "uri": "data:application/octet-stream;base64,",
      "byteLength": 416
    },
    {
      "uri": "data:application/octet-stream;base64,",
      "byteLength": 1152
    },
    {
      "uri": "data:application/octet-stream;base64,",
      "byteLength": 1704
    },
    {
      "uri": "data:application/octet-stream;base64,",
      "byteLength": 1152
    },
    {
      "uri": "data:application/octet-stream;base64,",
      "byteLength": 768
    },
    {
      "uri": "data:application/octet-stream;base64,",
      "byteLength": 564
    },
    {
      "uri": "data:application/octet-stream;base64,",
      "byteLength": 612
    },
    {
      "uri": "data:application/octet-stream;base64,",
      "byteLength": 564
    },
    {
      "uri": "data:application/octet-stream;base64,",
      "byteLength": 376
    },
    {
      "uri": "data:application/octet-stream;base64,",
      "byteLength": 624
    },
    {
      "uri": "data:application/octet-stream;base64,",
      "byteLength": 672
    },
    {
      "uri": "data:application/octet-stream;base64,",
      "byteLength": 624
    },
    {
      "uri": "data:application/octet-stream;base64,",
      "byteLength": 416
    },
    {
      "uri": "data:application/octet-stream;base64,",
      "byteLength": 1152
    },
    {
      "uri": "data:application/octet-stream;base64,",
      "byteLength": 1704
    },
    {
      "uri": "data:application/octet-stream;base64,",
      "byteLength": 1152
    },
    {
      "uri": "data:application/octet-stream;base64,",
      "byteLength": 768
    },
    {
      "uri": "data:application/octet-stream;base64,",
      "byteLength": 552
    },
    {
      "uri": "data:application/octet-stream;base64,",
      "byteLength": 600
    },
    {
      "uri": "data:application/octet-stream;base64,",
      "byteLength": 552
    },
    {
      "uri": "data:application/octet-stream;base64,",
      "byteLength": 368
    },
    {
      "uri": "data:application/octet-stream;base64,",
      "byteLength": 744
    },
    {
      "uri": "data:application/octet-stream;base64,",
      "byteLength": 792
    },
    {
      "uri": "data:application/octet-stream;base64,",
      "byteLength": 744
    },
    {
      "uri": "data:application/octet-stream;base64,",
      "byteLength": 496
    },
    {
      "uri": "data:application/octet-stream;base64,",
      "byteLength": 588
    },
    {
      "uri": "data:application/octet-stream;base64,",
      "byteLength": 636
    },
    {
      "uri": "data:application/octet-stream;base64,",
      "byteLength": 588
    },
    {
      "uri": "data:application/octet-stream;base64,",
      "byteLength": 392
    },
    {
      "uri": "data:application/octet-stream;base64,",
      "byteLength": 1356
    },
    {
      "uri": "data:application/octet-stream;base64,",
      "byteLength": 1908
    },
    {
      "uri": "data:application/octet-stream;base64,",
      "byteLength": 1356
    },
    {
      "uri": "data:application/octet-stream;base64,",
      "byteLength": 904
    },
    {
      "uri": "data:application/octet-stream;base64,",
      "byteLength": 756
    },
    {
      "uri": "data:application/octet-stream;base64,",
      "byteLength": 912
    },
    {
      "uri": "data:application/octet-stream;base64,",
      "byteLength": 756
    },
    {
      "uri": "data:application/octet-stream;base64,",
      "byteLength": 504
    },
    {
      "uri": "data:application/octet-stream;base64,",
      "byteLength": 588
    },
    {
      "uri": "data:application/octet-stream;base64,",
      "byteLength": 636
    },
    {
      "uri": "data:application/octet-stream;base64,",
      "byteLength": 588
    },
    {
      "uri": "data:application/octet-stream;base64,",
      "byteLength": 392
    },
    {
      "uri": "data:application/octet-stream;base64,",
      "byteLength": 1152
    },
    {
      "uri": "data:application/octet-stream;base64,",
      "byteLength": 1704
    },
    {
      "uri": "data:application/octet-stream;base64,",
      "byteLength": 1152
    },
    {
      "uri": "data:application/octet-stream;base64,",
      "byteLength": 768
    },
    {
      "uri": "data:application/octet-stream;base64,",
      "byteLength": 528
    },
    {
      "uri": "data:application/octet-stream;base64,",
      "byteLength": 576
    },
    {
      "uri": "data:application/octet-stream;base64,",
      "byteLength": 528
    },
    {
      "uri": "data:application/octet-stream;base64,",
      "byteLength": 352
    },
    {
      "uri": "data:application/octet-stream;base64,",
      "byteLength": 48
    },
    {
      "uri": "data:application/octet-stream;base64,",
      "byteLength": 24
    },
    {
      "uri": "data:application/octet-stream;base64,",
      "byteLength": 48
    },
    {
      "uri": "data:application/octet-stream;base64,",
      "byteLength": 32
    },
    {
      "uri": "data:application/octet-stream;base64,",
      "byteLength": 48
    },
    {
      "uri": "data:application/octet-stream;base64,",
      "byteLength": 24
    },
    {
      "uri": "data:application/octet-stream;base64,",
      "byteLength": 48
    },
    {
      "uri": "data:application/octet-stream;base64,",
      "byteLength": 32
    },
    {
      "uri": "data:application/octet-stream;base64,",
      "byteLength": 48
    },
    {
      "uri": "data:application/octet-stream;base64,",
      "byteLength": 24
    },
    {
      "uri": "data:application/octet-stream;base64,",
      "byteLength": 48
    },
    {
      "uri": "data:application/octet-stream;base64,",
      "byteLength": 32
    },
    {
      "uri": "data:application/octet-stream;base64,",
      "byteLength": 48
    },
    {
      "uri": "data:application/octet-stream;base64,",
      "byteLength": 24
    },
    {
      "uri": "data:application/octet-stream;base64,",
      "byteLength": 48
    },
    {
      "uri": "data:application/octet-stream;base64,",
      "byteLength": 32
    },
    {
      "uri": "data:application/octet-stream;base64,",
      "byteLength": 432
    },
    {
      "uri": "data:application/octet-stream;base64,",
      "byteLength": 480
    },
    {
      "uri": "data:application/octet-stream;base64,",
      "byteLength": 432
    },
    {
      "uri": "data:application/octet-stream;base64,",
      "byteLength": 288
    },
    {
      "uri": "data:application/octet-stream;base64,",
      "byteLength": 432
    },
    {
      "uri": "data:application/octet-stream;base64,",
      "byteLength": 480
    },
    {
      "uri": "data:application/octet-stream;base64,",
      "byteLength": 432
    },
    {
      "uri": "data:application/octet-stream;base64,",
      "byteLength": 288
    }
  ],
  "bufferViews": [
    {
      "buffer": 0,
      "byteLength": 432,
      "target": 34962
    },
    {
      "buffer": 1,
      "byteLength": 480,
      "target": 34963
    },
    {
      "buffer": 2,
      "byteLength": 432,
      "target": 34962
    },
    {
      "buffer": 3,
      "byteLength": 288,
      "target": 34962
    },
    {
      "buffer": 4,
      "byteLength": 432,
      "target": 34962
    },
    {
      "buffer": 5,
      "byteLength": 480,
      "target": 34963
    },
    {
      "buffer": 6,
      "byteLength": 432,
      "target": 34962
    },
    {
      "buffer": 7,
      "byteLength": 288,
      "target": 34962
    },
    {
      "buffer": 8,
      "byteLength": 84,
      "target": 34962
    },
    {
      "buffer": 9,
      "byteLength": 60,
      "target": 34963
    },
    {
      "buffer": 10,
      "byteLength": 84,
      "target": 34962
    },
    {
      "buffer": 11,
      "byteLength": 56,
      "target": 34962
    },
    {
      "buffer": 12,
      "byteLength": 1200,
      "target": 34962
    },
    {
      "buffer": 13,
      "byteLength": 1176,
      "target": 34963
    },
    {
      "buffer": 14,
      "byteLength": 1200,
      "target": 34962
    },
    {
      "buffer": 15,
      "byteLength": 800,
      "target": 34962
    },
    {
      "buffer": 16,
      "byteLength": 372,
      "target": 34962
    },
    {
      "buffer": 17,
      "byteLength": 372,
      "target": 34963
    },
    {
      "buffer": 18,
      "byteLength": 372,
      "target": 34962
    },
    {
      "buffer": 19,
      "byteLength": 248,
      "target": 34962
    },
    {
      "buffer": 20,
      "byteLength": 360,
      "target": 34962
    },
    {
      "buffer": 21,
      "byteLength": 408,
      "target": 34963
    },
    {
      "buffer": 22,
      "byteLength": 360,
      "target": 34962
    },
    {
      "buffer": 23,
      "byteLength": 240,
      "target": 34962
    },
    {
      "buffer": 24,
      "byteLength": 360,
      "target": 34962
    },
    {
      "buffer": 25,
      "byteLength": 360,
      "target": 34963
    },
    {
      "buffer": 26,
      "byteLength": 360,
      "target": 34962
    },
    {
      "buffer": 27,
      "byteLength": 240,
      "target": 34962
    },
    {
      "buffer": 28,
      "byteLength": 1128,
      "target": 34962
    },
    {
      "buffer": 29,
      "byteLength": 1104,
      "target": 34963
    },
    {
      "buffer": 30,
      "byteLength": 1128,
      "target": 34962
    },
    {
      "buffer": 31,
      "byteLength": 752,
      "target": 34962
    },
    {
      "buffer": 32,
      "byteLength": 168,
      "target": 34962
    },
    {
      "buffer": 33,
      "byteLength": 144,
      "target": 34963
    },
    {
      "buffer": 34,
      "byteLength": 168,
      "target": 34962
    },
    {
      "buffer": 35,
      "byteLength": 112,
      "target": 34962
    },
    {
      "buffer": 36,
      "byteLength": 384,
      "target": 34962
    },
    {
      "buffer": 37,
      "byteLength": 408,
      "target": 34963
    },
    {
      "buffer": 38,
      "byteLength": 384,
      "target": 34962
    },
    {
      "buffer": 39,
      "byteLength": 256,
      "target": 34962
    },
    {
      "buffer": 40,
      "byteLength": 444,
      "target": 34962
    },
    {
      "buffer": 41,
      "byteLength": 528,
      "target": 34963
    },
    {
      "buffer": 42,
      "byteLength": 444,
      "target": 34962
    },
    {
      "buffer": 43,
      "byteLength": 296,
      "target": 34962
    },
    {
      "buffer": 44,
      "byteLength": 384,
      "target": 34962
    },
    {
      "buffer": 45,
      "byteLength": 408,
      "target": 34963
    },
    {
      "buffer": 46,
      "byteLength": 384,
      "target": 34962
    },
    {
      "buffer": 47,
      "byteLength": 256,
      "target": 34962
    },
    {
      "buffer": 48,
      "byteLength": 864,
      "target": 34962
    },
    {
      "buffer": 49,
      "byteLength": 1176,
      "target": 34963
    },
    {
      "buffer": 50,
      "byteLength": 864,
      "target": 34962
    },
    {
      "buffer": 51,
      "byteLength": 576,
      "target": 34962
    },
    {
      "buffer": 52,
      "byteLength": 624,
      "target": 34962
    },
    {
      "buffer": 53,
      "byteLength": 672,
      "target": 34963
    },
    {
      "buffer": 54,
      "byteLength": 624,
      "target": 34962
    },
    {
      "buffer": 55,
      "byteLength": 416,
      "target": 34962
    },
    {
      "buffer": 56,
      "byteLength": 1152,
      "target": 34962
    },
    {
      "buffer": 57,
      "byteLength": 1704,
      "target": 34963
    },
    {
      "buffer": 58,
      "byteLength": 1152,
      "target": 34962
    },
    {
      "buffer": 59,
      "byteLength": 768,
      "target": 34962
    },
    {
      "buffer": 60,
      "byteLength": 564,
      "target": 34962
    },
    {
      "buffer": 61,
      "byteLength": 612,
      "target": 34963
    },
    {
      "buffer": 62,
      "byteLength": 564,
      "target": 34962
    },
    {
      "buffer": 63,
      "byteLength": 376,
      "target": 34962
    },
    {
      "buffer": 64,
      "byteLength": 624,
      "target": 34962
    },
    {
      "buffer": 65,
      "byteLength": 672,
      "target": 34963
    },
    {
      "buffer": 66,
      "byteLength": 624,
      "target": 34962
    },
    {
      "buffer": 67,
      "byteLength": 416,
      "target": 34962
    },
    {
      "buffer": 68,
      "byteLength": 1152,
      "target": 34962
    },
    {
      "buffer": 69,
      "byteLength": 1704,
      "target": 34963
    },
    {
      "buffer": 70,
      "byteLength": 1152,
      "target": 34962
    },
    {
      "buffer": 71,
      "byteLength": 768,
      "target": 34962
    },
    {
      "buffer": 72,
      "byteLength": 552,
      "target": 34962
    },
    {
      "buffer": 73,
      "byteLength": 600,
      "target": 34963
    },
    {
      "buffer": 74,
      "byteLength": 552,
      "target": 34962
    },
    {
      "buffer": 75,
      "byteLength": 368,
      "target": 34962
    },
    {
      "buffer": 76,
      "byteLength": 744,
      "target": 34962
    },
    {
      "buffer": 77,
      "byteLength": 792,
      "target": 34963
    },
    {
      "buffer": 78,
      "byteLength": 744,
      "target": 34962
    },
    {
      "buffer": 79,
      "byteLength": 496,
      "target": 34962
    },
    {
      "buffer": 80,
      "byteLength": 588,
      "target": 34962
    },
    {
      "buffer": 81,
      "byteLength": 636,
      "target": 34963
    },
    {
      "buffer": 82,
      "byteLength": 588,
      "target": 34962
    },
    {
      "buffer": 83,
      "byteLength": 392,
      "target": 34962
    },
    {
      "buffer": 84,
      "byteLength": 1356,
      "target": 34962
    },
    {
      "buffer": 85,
      "byteLength": 1908,
      "target": 34963
    },
    {
      "buffer": 86,
      "byteLength": 1356,
      "target": 34962
    },
    {
      "buffer": 87,
      "byteLength": 904,
      "target": 34962
    },
    {
      "buffer": 88,
      "byteLength": 756,
      "target": 34962
    },
    {
      "buffer": 89,
      "byteLength": 912,
      "target": 34963
    },
    {
      "buffer": 90,
      "byteLength": 756,
      "target": 34962
    },
    {
      "buffer": 91,
      "byteLength": 504,
      "target": 34962
    },
    {
      "buffer": 92,
      "byteLength": 588,
      "target": 34962
    },
    {
      "buffer": 93,
      "byteLength": 636,
      "target": 34963
    },
    {
      "buffer": 94,
      "byteLength": 588,
      "target": 34962
    },
    {
      "buffer": 95,
      "byteLength": 392,
      "target": 34962
    },
    {
      "buffer": 96,
      "byteLength": 1152,
      "target": 34962
    },
    {
      "buffer": 97,
      "byteLength": 1704,
      "target": 34963
    },
    {
      "buffer": 98,
      "byteLength": 1152,
      "target": 34962
    },
    {
      "buffer": 99,
      "byteLength": 768,
      "target": 34962
    },
    {
      "buffer": 100,
      "byteLength": 528,
      "target": 34962
    },
    {
      "buffer": 101,
      "byteLength": 576,
      "target": 34963
    },
    {
      "buffer": 102,
      "byteLength": 528,
      "target": 34962
    },
    {
      "buffer": 103,
      "byteLength": 352,
      "target": 34962
    },
    {
      "buffer": 104,
      "byteLength": 48,
      "target": 34962
    },
    {
      "buffer": 105,
      "byteLength": 24,
      "target": 34963
    },
    {
      "buffer": 106,
      "byteLength": 48,
      "target": 34962
    },
    {
      "buffer": 107,
      "byteLength": 32,
      "target": 34962
    },
    {
      "buffer": 108,
      "byteLength": 48,
      "target": 34962
    },
    {
      "buffer": 109,
      "byteLength": 24,
      "target": 34963
    },
    {
      "buffer": 110,
      "byteLength": 48,
      "target": 34962
    },
    {
      "buffer": 111,
      "byteLength": 32,
      "target": 34962
    },
    {
      "buffer": 112,
      "byteLength": 48,
      "target": 34962
    },
    {
      "buffer": 113,
      "byteLength": 24,
      "target": 34963
    },
    {
      "buffer": 114,
      "byteLength": 48,
      "target": 34962
    },
    {
      "buffer": 115,
      "byteLength": 32,
      "target": 34962
    },
    {
      "buffer": 116,
      "byteLength": 48,
      "target": 34962
    },
    {
      "buffer": 117,
      "byteLength": 24,
      "target": 34963
    },
    {
      "buffer": 118,
      "byteLength": 48,
      "target": 34962
    },
    {
      "buffer": 119,
      "byteLength": 32,
      "target": 34962
    },
    {
      "buffer": 120,
      "byteLength": 432,
      "target": 34962
    },
    {
      "buffer": 121,
      "byteLength": 480,
      "target": 34963
    },
    {
      "buffer": 122,
      "byteLength": 432,
      "target": 34962
    },
    {
      "buffer": 123,
      "byteLength": 288,
      "target": 34962
    },
    {
      "buffer": 124,
      "byteLength": 432,
      "target": 34962
    },
    {
      "buffer": 125,
      "byteLength": 480,
      "target": 34963
    },
    {
      "buffer": 126,
      "byteLength": 432,
      "target": 34962
    },
    {
      "buffer": 127,
      "byteLength": 288,
      "target": 34962
    }
  ],
  "materials": [
    {
      "pbrMetallicRoughness": {
        "baseColorFactor": [
          0.7921569,
          0.81960785,
          0.93333334,
          1.0
        ]
      }
    }
  ],
  "meshes": [
    {
      "primitives": [
        {
          "attributes": {
            "POSITION": 0,
            "NORMAL": 2,
            "TEXCOORD_0": 3
          },
          "indices": 1,
          "material": 0
        },
        {
          "attributes": {
            "POSITION": 4,
            "NORMAL": 6,
            "TEXCOORD_0": 7
          },
          "indices": 5,
          "material": 0
        },
        {
          "attributes": {
            "POSITION": 8,
            "NORMAL": 10,
            "TEXCOORD_0": 11
          },
          "indices": 9,
          "material": 0
        },
        {
          "attributes": {
            "POSITION": 12,
            "NORMAL": 14,
            "TEXCOORD_0": 15
          },
          "indices": 13,
          "material": 0
        },
        {
          "attributes": {
            "POSITION": 16,
            "NORMAL": 18,
            "TEXCOORD_0": 19
          },
          "indices": 17,
          "material": 0
        },
        {
          "attributes": {
            "POSITION": 20,
            "NORMAL": 22,
            "TEXCOORD_0": 23
          },
          "indices": 21,
          "material": 0
        },
        {
          "attributes": {
            "POSITION": 24,
            "NORMAL": 26,
            "TEXCOORD_0": 27
          },
          "indices": 25,
          "material": 0
        },
        {
          "attributes": {
            "POSITION": 28,
            "NORMAL": 30,
            "TEXCOORD_0": 31
          },
          "indices": 29,
          "material": 0
        },
        {
          "attributes": {
            "POSITION": 32,
            "NORMAL": 34,
            "TEXCOORD_0": 35
          },
          "indices": 33,
          "material": 0
        },
        {
          "attributes": {
            "POSITION": 36,
            "NORMAL": 38,
            "TEXCOORD_0": 39
          },
          "indices": 37,
          "material": 0
        },
        {
          "attributes": {
            "POSITION": 40,
            "NORMAL": 42,
            "TEXCOORD_0": 43
          },
          "indices": 41,
          "material": 0
        },
        {
          "attributes": {
            "POSITION": 44,
            "NORMAL": 46,
            "TEXCOORD_0": 47
          },
          "indices": 45,
          "material": 0
        },
        {
          "attributes": {
            "POSITION": 48,
            "NORMAL": 50,
            "TEXCOORD_0": 51
          },
          "indices": 49,
          "material": 0
        },
        {
          "attributes": {
            "POSITION": 52,
            "NORMAL": 54,
            "TEXCOORD_0": 55
          },
          "indices": 53,
          "material": 0
        },
        {
          "attributes": {
            "POSITION": 56,
            "NORMAL": 58,
            "TEXCOORD_0": 59
          },
          "indices": 57,
          "material": 0
        },
        {
          "attributes": {
            "POSITION": 60,
            "NORMAL": 62,
            "TEXCOORD_0": 63
          },
          "indices": 61,
          "material": 0
        },
        {
          "attributes": {
            "POSITION": 64,
            "NORMAL": 66,
            "TEXCOORD_0": 67
          },
          "indices": 65,
          "material": 0
        },
        {
          "attributes": {
            "POSITION": 68,
            "NORMAL": 70,
            "TEXCOORD_0": 71
          },
          "indices": 69,
          "material": 0
        },
        {
          "attributes": {
            "POSITION": 72,
            "NORMAL": 74,
            "TEXCOORD_0": 75
          },
          "indices": 73,
          "material": 0
        },
        {
          "attributes": {
            "POSITION": 76,
            "NORMAL": 78,
            "TEXCOORD_0": 79
          },
          "indices": 77,
          "material": 0
        },
        {
          "attributes": {
            "POSITION": 80,
            "NORMAL": 82,
            "TEXCOORD_0": 83
          },
          "indices": 81,
          "material": 0
        },
        {
          "attributes": {
            "POSITION": 84,
            "NORMAL": 86,
            "TEXCOORD_0": 87
          },
          "indices": 85,
          "material": 0
        },
        {
          "attributes": {
            "POSITION": 88,
            "NORMAL": 90,
            "TEXCOORD_0": 91
          },
          "indices": 89,
          "material": 0
        },
        {
          "attributes": {
            "POSITION": 92,
            "NORMAL": 94,
            "TEXCOORD_0": 95
          },
          "indices": 93,
          "material": 0
        },
        {
          "attributes": {
            "POSITION": 96,
            "NORMAL": 98,
            "TEXCOORD_0": 99
          },
          "indices": 97,
          "material": 0
        },
        {
          "attributes": {
            "POSITION": 100,
            "NORMAL": 102,
            "TEXCOORD_0": 103
          },
          "indices": 101,
          "material": 0
        },
        {
          "attributes": {
            "POSITION": 104,
            "NORMAL": 106,
            "TEXCOORD_0": 107
          },
          "indices": 105,
          "material": 0
        },
        {
          "attributes": {
            "POSITION": 108,
            "NORMAL": 110,
            "TEXCOORD_0": 111
          },
          "indices": 109,
          "material": 0
        },
        {
          "attributes": {
            "POSITION": 112,
            "NORMAL": 114,
            "TEXCOORD_0": 115
          },
          "indices": 113,
          "material": 0
        },
        {
          "attributes": {
            "POSITION": 116,
            "NORMAL": 118,
            "TEXCOORD_0": 119
          },
          "indices": 117,
          "material": 0
        },
        {
          "attributes": {
            "POSITION": 120,
            "NORMAL": 122,
            "TEXCOORD_0": 123
          },
          "indices": 121,
          "material": 0
        },
        {
          "attributes": {
            "POSITION": 124,
            "NORMAL": 126,
            "TEXCOORD_0": 127
          },
          "indices": 125,
          "material": 0
        }
      ]
    }
  ],
  "nodes": [
    {
      "mesh": 0,
      "name": "NONE"
    }
  ],
  "samplers": [
    {
      "magFilter": 9729,
      "minFilter": 9729
    }
  ],
  "scene": 0,
  "scenes": [
    {
      "nodes": [
        0
      ],
      "extensions": {}
    }
  ],
  "extensions": {}
}